[IMG]http://img819.imageshack.us/img819/5138/manonc.jpg[/IMG]
[code]
Man on a Ledge 2012 CAM NEWSOURCE XviD AC3-26K

Imdb: 
http://www.imdb.com/title/tt1568338/

Plot:
As a police psychologist works to talk down an ex-con who is threatening to jump from a Manhattan hotel rooftop, the biggest diamond heist ever committed is in motion...

Sources:
video: P76 Thanks 
Audio: NoGRP Thanks 

Notes:
added a few filters to the video to make it look nice so take it or leave it.

Greetz:
Xtreme Encode|FYA|ILLUMANTI|CM8|RX|VISION|HDSCENE|NIGHTMAREZ|xTriLL|DTRG|CRYS|REMIXHD|BIDA|RX|REFILL|INSPiRAL|SIC|ZOMBIESZ|HOPE|Anonymous|GooN
To all the people who have helped me :P you know who you are

Anything to offer email us @: 26k@hushmail.me

Video
ID                                       : 0
Format                                   : MPEG-4 Visual
Format profile                           : Advanced Simple@L5
Format settings, BVOP                    : 2
Format settings, QPel                    : No
Format settings, GMC                     : No warppoints
Format settings, Matrix                  : Default (H.263)
Codec ID                                 : XVID
Codec ID/Hint                            : XviD
Duration                                 : 1h 35mn
Bit rate                                 : 1 500 Kbps
Width                                    : 720 pixels
Height                                   : 304 pixels
Display aspect ratio                     : 2.35:1
Frame rate                               : 25.000 fps
Color space                              : YUV
Chroma subsampling                       : 4:2:0
Bit depth                                : 8 bits
Scan type                                : Progressive
Compression mode                         : Lossy
Bits/(Pixel*Frame)                       : 0.274
Stream size                              : 1 021 MiB (92%)
Writing library                          : XviD 64

Audio
ID                                       : 1
Format                                   : AC-3
Format/Info                              : Audio Coding 3
Mode extension                           : CM (complete main)
Codec ID                                 : 2000
Duration                                 : 1h 35mn
Source duration                          : 1h 35mn
Bit rate mode                            : Constant
Bit rate                                 : 128 Kbps
Channel(s)                               : 2 channels
Channel positions                        : Front: L R
Sampling rate                            : 44.1 KHz
Bit depth                                : 16 bits
Compression mode                         : Lossy
Stream size                              : 87.1 MiB (8%)
Alignment                                : Aligned on interleaves
Interleave, duration                     : 35 ms (0.87 video frame)

[/code]
Screens:
[IMG]http://i.imgur.com/aPnka.png[/IMG]
[IMG]http://i.imgur.com/4mmti.png[/IMG]
[IMG]http://img839.imageshack.us/img839/4194/vlcsnap2012022220h53m08.png[/IMG]
[IMG]http://img109.imageshack.us/img109/1259/vlcsnap2012022220h53m02.png[/IMG]
[IMG]http://img138.imageshack.us/img138/3812/vlcsnap2012022220h52m53.png[/IMG]

[img]http://img851.imageshack.us/img851/5503/26ks.jpg[/img]
Thank you smallz for banner!